<?xml version="1.0" encoding="UTF-8"?> <svg xmlns="http://www.w3.org/2000/svg" viewBox="0 0 81.9 28.86"> <defs> <style>.cls-1{fill:#292022;}.cls-2{fill:#6ea74b;}</style> </defs> <title>Asset 49</title> <g id="Layer_2" data-name="Layer 2"> <g id="nav_and_branding" data-name="nav and branding"> <path class="cls-1" d="M35.43,10c2.59-1.94,5.25-2,8-1.87,4,.26,6.47,2.38,7.06,6.28a26.53,26.53,0,0,1,0,8.2c-.6,3.7-3,5.74-6.76,6.16-.57.06-1.15.06-1.72.07-6.75.16-9.64-2.63-9.64-9.36,0-5.81,0-11.62,0-17.43,0-1.1,0-2,1.54-2s1.62.81,1.6,2C35.41,4.62,35.43,7.28,35.43,10Zm0,8.17h-.1c.11,1.39.19,2.79.32,4.19a3.48,3.48,0,0,0,2.35,3,9.87,9.87,0,0,0,6.92,0,3.22,3.22,0,0,0,2.23-2.64,26.31,26.31,0,0,0,0-8.54,3.6,3.6,0,0,0-2.57-2.84c-5.36-2-9,.47-9.14,6.06C35.44,17.61,35.45,17.87,35.45,18.12Z"></path> <path class="cls-2" d="M21.9,19.61c-1.4,0-2.81-.06-4.21,0-.88.05-2.18-.55-2.53.66a3.9,3.9,0,0,0,.61,3.64,5.83,5.83,0,0,0,4.44,1.88,19.79,19.79,0,0,0,6.27-.61c.77-.19,1.72-.5,2,.76a1.6,1.6,0,0,1-1.31,2.14,21,21,0,0,1-10,.25c-3.06-.72-4.74-2.82-5.22-5.91a33.25,33.25,0,0,1,0-8.22,6.7,6.7,0,0,1,5.3-5.84,13.87,13.87,0,0,1,6.08-.13c4.52.86,7.34,6.22,5.67,10.46-.3.77-.83.87-1.5.87H21.9ZM20.52,17h4.39c.63,0,1.07-.09,1.21-.87a4.48,4.48,0,0,0-2.95-5,8.37,8.37,0,0,0-4.88-.1,4.32,4.32,0,0,0-3.37,4.11c-.14,1.42.32,2,1.78,1.84C18,16.9,19.24,17,20.52,17Z"></path> <path class="cls-1" d="M69.26,18.52c0,1.34,0,2.68,0,4-.13,3.24-1.52,4.66-4.54,5.61a12.58,12.58,0,0,1-8.11,0,5.31,5.31,0,0,1-4-5.3,5.28,5.28,0,0,1,4-5.55c2.25-.63,4.57-.36,6.86-.49.84,0,2.22.66,2.44-.62.25-1.43.51-3.08-.88-4.29a5,5,0,0,0-3.37-1.13,23.43,23.43,0,0,0-5.35.31c-.61.14-1.5.43-1.62-.69-.11-.92-.12-1.75,1.17-2a20.47,20.47,0,0,1,9.31.23,5.08,5.08,0,0,1,3.88,4.51c.2,1.77.19,3.57.27,5.35Zm-6.89.69a15.51,15.51,0,0,0-4.18.37,3,3,0,0,0-2.37,3.22,3,3,0,0,0,2.56,3.1,10.55,10.55,0,0,0,4.19.13c2.92-.39,3.81-1.68,3.43-5.64-.23-2.48-2.33-.63-3.44-1.18A.61.61,0,0,0,62.37,19.21Z"></path> <path class="cls-2" d="M0,20.55c0-2.1-.1-4.21,0-6.31.29-4.69,4.25-7.4,8.78-6.12,1,.29,1,1,1,1.81s-.48,1.25-1.35,1.14a7.71,7.71,0,0,0-1,0c-3,0-4.21,1.07-4.24,4.07,0,3.76,0,7.52,0,11.28,0,1.25-.15,2.13-1.68,2.14S0,27.57,0,26.48c0-2,0-3.95,0-5.93Z"></path> <path class="cls-1" d="M75.25,20.9c0,1.92-.06,3.83,0,5.74.06,1.28-.58,1.47-1.63,1.48s-1.53-.18-1.51-1.34c.05-4.21-.12-8.42.07-12.63.2-4.47,4.29-7.2,8.64-6,1,.26,1.09,1,1.06,1.75s-.44,1.29-1.35,1.15a7.33,7.33,0,0,0-1.15-.08c-2.78,0-4,1.08-4.14,3.85,0,.13,0,.26,0,.38Z"></path> </g> </g> </svg> 